<svg width="16" height="15" viewBox="0 0 16 15" fill="none" xmlns="http://www.w3.org/2000/svg">
<path d="M1.25 0.750275H14.75C14.9489 0.750275 15.1397 0.829292 15.2803 0.969945C15.421 1.1106 15.5 1.30136 15.5 1.50027V13.5003C15.5 13.6992 15.421 13.89 15.2803 14.0306C15.1397 14.1713 14.9489 14.2503 14.75 14.2503H1.25C1.05109 14.2503 0.860322 14.1713 0.71967 14.0306C0.579018 13.89 0.5 13.6992 0.5 13.5003V1.50027C0.5 1.30136 0.579018 1.1106 0.71967 0.969945C0.860322 0.829292 1.05109 0.750275 1.25 0.750275ZM14 3.92877L8.054 9.25377L2 3.91227V12.7503H14V3.92877ZM2.38325 2.25027L8.04575 7.24677L13.6265 2.25027H2.38325Z" fill="white" fill-opacity="0.3"/>
</svg>
